Coordinates
version=1
nRows=25
nColumns=28
inDegrees=yes

Units are S.I. units (second, meters, Newtons, ...)
Angles are in degrees.

endheader
time	pelvis_tilt	pelvis_list	pelvis_rotation	pelvis_tx	pelvis_ty	pelvis_tz	hip_flexion_r	hip_adduction_r	hip_rotation_r	knee_angle_r	ankle_angle_r	subtalar_angle_r	mtp_angle_r	hip_flexion_l	hip_adduction_l	hip_rotation_l	knee_angle_l	socket_flexion	socket_adduction	socket_rotation	socket_tx	socket_ty	socket_tz	foot_flex	lumbar_extension	lumbar_bending	lumbar_rotation
      0.80000000	     -5.38505341	     -6.85451783	      6.70753924	      0.35105298	      0.97169496	      0.24996786	     18.81442477	     12.25761171	      3.60707512	    -28.08736510	      7.53060205	    -20.22494783	      4.84830308	     32.11048954	     -8.70162488	     -4.31985855	    -62.60804518	     11.24810112	    -10.66214759	    -10.65727589	      0.01992169	      0.02326451	      0.00437579	     -0.87682350	     -6.22527588	      6.71203329	    -14.52669773
      0.80416667	     -5.40759800	     -6.72272297	      6.67134114	      0.35663080	      0.97293649	      0.24944774	     18.19426418	     12.10885865	      3.67583126	    -27.64467584	      7.52267682	    -20.08356581	      4.85976420	     32.89780652	     -8.41836560	     -4.12900092	    -62.62017567	     11.14220770	    -10.49980813	     -9.84413400	      0.01991490	      0.02360793	      0.00346192	     -0.89681432	     -6.22999021	      6.60251365	    -14.29359272
      0.80833333	     -5.42968635	     -6.59878689	      6.63962168	      0.36219228	      0.97417268	      0.24891944	     17.57349560	     11.96319180	      3.74144698	    -27.19157437	      7.49966192	    -19.94356127	      4.87075580	     33.66296497	     -8.14021146	     -3.94102319	    -62.58497119	     11.00211813	    -10.34305133	     -9.10803577	      0.01984037	      0.02390943	      0.00260703	     -0.91959102	     -6.22932657	      6.51482966	    -14.05693281
      0.81250000	     -5.44584735	     -6.48589027	      6.61241464	      0.36779692	      0.97538331	      0.24839265	     16.94080621	     11.83182687	      3.80428595	    -26.72648813	      7.45983136	    -19.80168862	      4.88195974	     34.40964107	     -7.86157010	     -3.73990287	    -62.50901067	     10.82938100	    -10.20582774	     -8.43913358	      0.01981972	      0.02429322	      0.00182596	     -0.94217525	     -6.22498592	      6.43412589	    -13.81018298
      0.81666667	     -5.45953966	     -6.37473407	      6.57663095	      0.37338664	      0.97657244	      0.24783064	     16.31251527	     11.69713047	      3.86276587	    -26.27100361	      7.40797108	    -19.67067979	      4.89219837	     35.12574790	     -7.58606662	     -3.54778818	    -62.38265652	     10.62465231	    -10.06856861	     -7.87102481	      0.01974102	      0.02464960	      0.00113384	     -0.96345257	     -6.22516686	      6.37838280	    -13.57012824
      0.82083333	     -5.47221015	     -6.27898630	      6.54831886	      0.37908466	      0.97776999	      0.24729822	     15.66313303	     11.58189277	      3.91921679	    -25.77774111	      7.33201463	    -19.53577161	      4.90293818	     35.81365541	     -7.29259395	     -3.33028202	    -62.21232478	     10.38378020	     -9.96386799	     -7.37471431	      0.01967867	      0.02508920	      0.00065462	     -0.98397088	     -6.20894374	      6.31362697	    -13.30982109
      0.82500000	     -5.47639479	     -6.16973494	      6.52295945	      0.38469912	      0.97894518	      0.24672184	     15.02033666	     11.44943815	      3.98262921	    -25.30903341	      7.24829454	    -19.41632920	      4.91283268	     36.47740514	     -7.00416932	     -3.12944661	    -61.99249160	     10.11325416	     -9.84499127	     -6.98269402	      0.01962815	      0.02553889	      0.00012549	     -1.00224460	     -6.20644273	      6.26552455	    -13.06728929
      0.82916667	     -5.48841645	     -6.07246129	      6.49176075	      0.39040957	      0.98010639	      0.24613584	     14.37509036	     11.32683617	      4.04365078	    -24.82664370	      7.14984639	    -19.30513752	      4.92235305	     37.10096948	     -6.69847420	     -2.91322251	    -61.72326977	      9.80723741	     -9.74536391	     -6.68070411	      0.01950884	      0.02593311	     -0.00023039	     -1.01730021	     -6.18713594	      6.22077284	    -12.82381512
      0.83333333	     -5.49287567	     -5.97400496	      6.47031549	      0.39610067	      0.98123355	      0.24554887	     13.71515168	     11.20665559	      4.10771204	    -24.31719385	      7.02666478	    -19.19915260	      4.93234354	     37.69528993	     -6.36827811	     -2.67629810	    -61.40493557	      9.46618115	     -9.65478775	     -6.47014841	      0.01944365	      0.02634690	     -0.00036472	     -1.03076272	     -6.17315445	      6.16554803	    -12.57081100
      0.83750000	     -5.45054616	     -5.92888790	      6.26592273	      0.40136563	      0.98209340	      0.24544401	     13.34560082	     11.18266754	      4.07799305	    -24.42435373	      7.01428709	    -19.19638331	      4.93241445	     38.19792830	     -6.26646165	     -2.60267983	    -61.01532484	      9.07125536	     -9.60277913	     -6.38781897	      0.01954614	      0.02628834	     -0.00073802	     -0.96756799	     -6.25276942	      6.19055721	    -12.55719993
      0.84166667	     -5.50738603	     -5.79053489	      6.43592986	      0.40759620	      0.98345991	      0.24411015	     12.39783227	     10.95441913	      4.22064313	    -23.30150873	      6.68604408	    -19.02477083	      4.94366147	     38.69469772	     -5.60674667	     -2.15388372	    -60.56999864	      8.64521817	     -9.49681493	     -6.39071420	      0.01889209	      0.02665263	     -0.00001008	     -1.01474653	     -6.10832045	      6.15346767	    -12.04877271
      0.84583333	     -5.48476623	     -5.65060009	      6.39137260	      0.41313288	      0.98451968	      0.24379019	     11.76337593	     10.81341868	      4.27567441	    -22.87836594	      6.57186239	    -18.98463175	      4.96207493	     39.24508128	     -5.33302046	     -1.90279052	    -60.16523879	      8.25821728	     -9.34783699	     -6.39643575	      0.01905184	      0.02744880	     -0.00057455	     -1.04220915	     -6.18736396	      5.97495242	    -11.88965924
      0.85000000	     -5.50939673	     -5.54919561	      6.38897724	      0.41898137	      0.98553528	      0.24303861	     11.08755693	     10.67521935	      4.36364416	    -22.30765325	      6.41369624	    -18.93725683	      4.98316070	     39.63504026	     -4.91265918	     -1.60121077	    -59.61315221	      7.75004651	     -9.24902061	     -6.55798886	      0.01865413	      0.02732418	     -0.00019561	     -1.03259213	     -6.13322197	      5.95773335	    -11.66408780
      0.85416667	     -5.12053288	     -5.24248274	      6.45947619	      0.42475601	      0.98733067	      0.24201396	      9.96684085	     10.30296446	      4.23298101	    -21.73452874	      5.66302427	    -19.18304246	      5.11997062	     39.21903539	     -4.25401952	     -0.62352116	    -58.80584963	      7.17291890	     -8.52738075	     -7.34479103	      0.01719111	      0.02552512	     -0.00116015	     -0.94435702	     -6.62410198	      5.73296674	    -11.32015888
      0.85833333	     -5.19038714	     -5.17479486	      6.38858712	      0.43045705	      0.98811566	      0.24163701	      9.40933643	     10.24170841	      4.40080227	    -21.29081535	      5.79928867	    -19.15572611	      5.19516500	     39.75390109	     -4.04539966	     -0.39340975	    -58.28351514	      6.66606276	     -8.40814332	     -7.35598911	      0.01742212	      0.02607783	     -0.00141987	     -1.02329550	     -6.53193074	      5.70256325	    -11.27507753
      0.86250000	     -5.27703577	     -5.13023003	      6.33225669	      0.43619834	      0.98883202	      0.24102584	      8.86084920	     10.17744975	      4.53354256	    -20.81177698	      5.73580967	    -19.09536214	      5.24034302	     40.19129736	     -3.72188323	     -0.14164187	    -57.66683427	      6.09590665	     -8.35320522	     -7.61059629	      0.01720593	      0.02620813	     -0.00084461	     -0.97771610	     -6.42029262	      5.72274090	    -11.17099285
      0.86666667	     -5.35752589	     -5.03280498	      6.29350289	      0.44191951	      0.98954307	      0.24041423	      8.29860625	     10.05154369	      4.63402452	    -20.31824217	      5.58644318	    -19.05200451	      5.27167491	     40.59690920	     -3.33959453	      0.15167973	    -57.02099268	      5.50957586	     -8.24699664	     -7.91189353	      0.01699756	      0.02643778	     -0.00035311	     -0.98510251	     -6.32569840	      5.66717227	    -11.04695842
      0.87083333	     -5.43461910	     -4.94365110	      6.25707440	      0.44766336	      0.99023008	      0.23974031	      7.76008313	      9.92692194	      4.70015591	    -19.87467014	      5.41020206	    -19.04377743	      5.30029721	     40.88515534	     -2.93498912	      0.47263512	    -56.29745650	      4.85752976	     -8.13509945	     -8.26859774	      0.01640512	      0.02622640	      0.00033472	     -0.94436192	     -6.23265998	      5.62385528	    -10.92187074
      0.87500000	     -5.49558604	     -4.80105259	      6.25997182	      0.45342129	      0.99092252	      0.23907419	      7.16889974	      9.75198992	      4.78737693	    -19.37864426	      5.19730705	    -19.05208397	      5.33751807	     41.12959804	     -2.50040202	      0.84621800	    -55.53956521	      4.19498674	     -7.92926698	     -8.70189370	      0.01582395	      0.02607279	      0.00070853	     -0.94242209	     -6.16575497	      5.50502149	    -10.79970726
      0.87916667	     -5.54757021	     -4.70812637	      6.19260898	      0.45915572	      0.99154753	      0.23840001	      6.63406902	      9.61838391	      4.82620716	    -18.99213432	      5.02168493	    -19.08837302	      5.37852129	     41.27007445	     -2.11418275	      1.22082760	    -54.73094230	      3.47218622	     -7.75157699	     -9.08887432	      0.01496239	      0.02551860	      0.00133618	     -0.89428300	     -6.10708290	      5.47305369	    -10.69861880
      0.88333333	     -5.61835474	     -4.56603492	      6.16657722	      0.46496470	      0.99211474	      0.23780731	      6.04138922	      9.44265478	      4.90927398	    -18.46929942	      4.83143022	    -19.11000013	      5.42978271	     41.41872732	     -1.70776016	      1.63027556	    -53.90306880	      2.74747909	     -7.49722490	     -9.52752402	      0.01417626	      0.02512532	      0.00167566	     -0.90302023	     -6.03171062	      5.33611914	    -10.59666891
      0.88750000	     -5.57538922	     -4.54307339	      6.04076258	      0.46984441	      0.99225712	      0.23772121	      5.72686705	      9.44833100	      4.89312624	    -18.60509210	      4.81624010	    -19.10929491	      5.43188606	     41.93721718	     -1.63457306	      1.72658094	    -53.36397047	      2.19685850	     -7.44021386	     -9.48226249	      0.01538587	      0.02652788	      0.00188549	     -0.80973129	     -6.16304012	      5.33303598	    -10.59699897
      0.89166667	     -5.27387663	     -3.91671114	      6.08826847	      0.47634754	      0.99408319	      0.23628006	      4.39888633	      8.69407977	      4.97386172	    -17.56970300	      3.82840712	    -19.56786282	      5.74228968	     40.42814013	     -0.54992752	      3.57473338	    -51.78676813	      1.17006226	     -5.96865645	    -11.41134688	      0.00962017	      0.02144005	      0.00009198	     -0.72839407	     -6.56957873	      4.76711325	    -10.40743213
      0.89583333	     -5.39903401	     -4.02096588	      6.05408761	      0.48195597	      0.99409579	      0.23588019	      4.03717180	      8.80547618	      4.98982935	    -17.31577410	      3.95777628	    -19.55920876	      5.81898156	     40.69393991	     -0.47455904	      3.81582095	    -50.98829917	      0.36561449	     -5.92912574	    -11.35487289	      0.00911647	      0.02111972	      0.00061528	     -0.75466300	     -6.40463777	      4.89385338	    -10.35867082
      0.90000000	     -5.57513039	     -3.98102117	      6.05628591	      0.48784947	      0.99416376	      0.23531265	      3.46093814	      8.74078248	      5.17656151	    -16.58406340	      3.86915957	    -19.45412240	      5.96341523	     40.89878512	     -0.22411324	      4.27755320	    -50.12313391	     -0.42240264	     -5.64811590	    -11.60835561	      0.00834654	      0.02079299	      0.00065114	     -0.78481450	     -6.18911395	      4.84514224	    -10.28658155
